HIERARCHY
ROOT Hips
{
	OFFSET -14.64140 90.27770 -84.91600
	CHANNELS 6 Xposition Yposition Zposition Zrotation Xrotation Yrotation
	JOINT Spine
	{
		OFFSET 0.00000 13.20850 -1.60436
		CHANNELS 3 Zrotation Xrotation Yrotation
		JOINT Spine1
		{
			OFFSET 0.00000 8.61716 0.00000
			CHANNELS 3 Zrotation Xrotation Yrotation
			JOINT Spine2
			{
				OFFSET 0.00000 8.61717 0.00000
				CHANNELS 3 Zrotation Xrotation Yrotation
				JOINT Spine3
				{
					OFFSET 0.00000 8.61717 0.00000
					CHANNELS 3 Zrotation Xrotation Yrotation
					JOINT Neck
					{
						OFFSET 0.00000 11.07920 1.10792
						CHANNELS 3 Zrotation Xrotation Yrotation
						JOINT Neck1
						{
							OFFSET 0.00000 7.08032 0.00000
							CHANNELS 3 Zrotation Xrotation Yrotation
							JOINT Head
							{
								OFFSET 0.00000 7.08031 0.00000
								CHANNELS 3 Zrotation Xrotation Yrotation
								End site
								{
									OFFSET 0.00000 0.00000 0.00000
								}
							}
						}
					}
					JOINT RightShoulder
					{
						OFFSET -0.01000 7.91373 5.19711
						CHANNELS 3 Zrotation Xrotation Yrotation
						JOINT RightArm
						{
							OFFSET -18.41580 0.00000 0.00000
							CHANNELS 3 Zrotation Xrotation Yrotation
							JOINT RightForeArm
							{
								OFFSET -29.11090 0.00000 0.00000
								CHANNELS 3 Zrotation Xrotation Yrotation
								JOINT RightHand
								{
									OFFSET -24.65040 0.00000 0.00000
									CHANNELS 3 Zrotation Xrotation Yrotation
									JOINT RightHandThumb1
									{
										OFFSET -5.35114 -0.85590 3.97906
										CHANNELS 3 Zrotation Xrotation Yrotation
										JOINT RightHandThumb2
										{
											OFFSET -4.52789 0.00000 0.00000
											CHANNELS 3 Zrotation Xrotation Yrotation
											JOINT RightHandThumb3
											{
												OFFSET -2.46976 0.00000 0.00000
												CHANNELS 3 Zrotation Xrotation Yrotation
												End site
												{
													OFFSET 0.00000 0.00000 0.00000
												}
											}
										}
									}
									JOINT RightHandIndex1
									{
										OFFSET -14.26970 0.00000 2.88139
										CHANNELS 3 Zrotation Xrotation Yrotation
										JOINT RightHandIndex2
										{
											OFFSET -5.48836 0.00000 0.00000
											CHANNELS 3 Zrotation Xrotation Yrotation
											JOINT RightHandIndex3
											{
												OFFSET -3.01859 0.00000 0.00000
												CHANNELS 3 Zrotation Xrotation Yrotation
												End site
												{
													OFFSET 0.00000 0.00000 0.00000
												}
											}
										}
									}
									JOINT RightHandMiddle1
									{
										OFFSET -14.26970 0.00000 -0.09147
										CHANNELS 3 Zrotation Xrotation Yrotation
										JOINT RightHandMiddle2
										{
											OFFSET -6.17441 0.00000 0.00000
											CHANNELS 3 Zrotation Xrotation Yrotation
											JOINT RightHandMiddle3
											{
												OFFSET -3.56743 0.00000 0.00000
												CHANNELS 3 Zrotation Xrotation Yrotation
												End site
												{
													OFFSET 0.00000 0.00000 0.00000
												}
											}
										}
									}
									JOINT RightHandRing1
									{
										OFFSET -12.69180 0.00000 -3.06433
										CHANNELS 3 Zrotation Xrotation Yrotation
										JOINT RightHandRing2
										{
											OFFSET -5.62556 0.00000 0.00000
											CHANNELS 3 Zrotation Xrotation Yrotation
											JOINT RightHandRing3
											{
												OFFSET -3.56744 0.00000 0.00000
												CHANNELS 3 Zrotation Xrotation Yrotation
												End site
												{
													OFFSET 0.00000 0.00000 0.00000
												}
											}
										}
									}
									JOINT RightHandPinky1
									{
										OFFSET -11.11390 0.00000 -6.03719
										CHANNELS 3 Zrotation Xrotation Yrotation
										JOINT RightHandPinky2
										{
											OFFSET -4.52789 0.00000 0.00000
											CHANNELS 3 Zrotation Xrotation Yrotation
											JOINT RightHandPinky3
											{
												OFFSET -2.46976 0.00000 0.00000
												CHANNELS 3 Zrotation Xrotation Yrotation
												End site
												{
													OFFSET 0.00000 0.00000 0.00000
												}
											}
										}
									}
								}
							}
						}
					}
					JOINT LeftShoulder
					{
						OFFSET 0.01000 7.91373 5.19711
						CHANNELS 3 Zrotation Xrotation Yrotation
						JOINT LeftArm
						{
							OFFSET 18.41580 0.00000 0.00000
							CHANNELS 3 Zrotation Xrotation Yrotation
							JOINT LeftForeArm
							{
								OFFSET 29.11090 0.00000 0.00000
								CHANNELS 3 Zrotation Xrotation Yrotation
								JOINT LeftHand
								{
									OFFSET 24.65040 0.00000 0.00000
									CHANNELS 3 Zrotation Xrotation Yrotation
									JOINT LeftHandThumb1
									{
										OFFSET 5.35114 -0.85590 3.97906
										CHANNELS 3 Zrotation Xrotation Yrotation
										JOINT LeftHandThumb2
										{
											OFFSET 4.52789 0.00000 0.00000
											CHANNELS 3 Zrotation Xrotation Yrotation
											JOINT LeftHandThumb3
											{
												OFFSET 2.46977 0.00000 0.00000
												CHANNELS 3 Zrotation Xrotation Yrotation
												End site
												{
													OFFSET 0.00000 0.00000 0.00000
												}
											}
										}
									}
									JOINT LeftHandIndex1
									{
										OFFSET 14.26970 0.00000 2.88139
										CHANNELS 3 Zrotation Xrotation Yrotation
										JOINT LeftHandIndex2
										{
											OFFSET 5.48836 0.00000 0.00000
											CHANNELS 3 Zrotation Xrotation Yrotation
											JOINT LeftHandIndex3
											{
												OFFSET 3.01859 0.00000 0.00000
												CHANNELS 3 Zrotation Xrotation Yrotation
												End site
												{
													OFFSET 0.00000 0.00000 0.00000
												}
											}
										}
									}
									JOINT LeftHandMiddle1
									{
										OFFSET 14.26970 0.00000 -0.09147
										CHANNELS 3 Zrotation Xrotation Yrotation
										JOINT LeftHandMiddle2
										{
											OFFSET 6.17440 0.00000 0.00000
											CHANNELS 3 Zrotation Xrotation Yrotation
											JOINT LeftHandMiddle3
											{
												OFFSET 3.56744 0.00000 0.00000
												CHANNELS 3 Zrotation Xrotation Yrotation
												End site
												{
													OFFSET 0.00000 0.00000 0.00000
												}
											}
										}
									}
									JOINT LeftHandRing1
									{
										OFFSET 12.69180 0.00000 -3.06433
										CHANNELS 3 Zrotation Xrotation Yrotation
										JOINT LeftHandRing2
										{
											OFFSET 5.62556 0.00000 0.00000
											CHANNELS 3 Zrotation Xrotation Yrotation
											JOINT LeftHandRing3
											{
												OFFSET 3.56744 0.00000 0.00000
												CHANNELS 3 Zrotation Xrotation Yrotation
												End site
												{
													OFFSET 0.00000 0.00000 0.00000
												}
											}
										}
									}
									JOINT LeftHandPinky1
									{
										OFFSET 11.11390 0.00000 -6.03719
										CHANNELS 3 Zrotation Xrotation Yrotation
										JOINT LeftHandPinky2
										{
											OFFSET 4.52789 0.00000 0.00000
											CHANNELS 3 Zrotation Xrotation Yrotation
											JOINT LeftHandPinky3
											{
												OFFSET 2.46976 0.00000 0.00000
												CHANNELS 3 Zrotation Xrotation Yrotation
												End site
												{
													OFFSET 0.00000 0.00000 0.00000
												}
											}
										}
									}
								}
							}
						}
					}
					JOINT pCube4
					{
						OFFSET 0.00000 10.91090 1.10792
						CHANNELS 3 Zrotation Xrotation Yrotation
						End site
						{
							OFFSET 0.00000 0.00000 0.00000
						}
					}
				}
			}
		}
	}
	JOINT RightUpLeg
	{
		OFFSET -9.98441 0.00000 0.00000
		CHANNELS 3 Zrotation Xrotation Yrotation
		JOINT RightLeg
		{
			OFFSET 0.00000 -42.11790 0.00000
			CHANNELS 3 Zrotation Xrotation Yrotation
			JOINT RightFoot
			{
				OFFSET 0.00000 -45.00020 -0.00001
				CHANNELS 3 Zrotation Xrotation Yrotation
				JOINT RightForeFoot
				{
					OFFSET 0.00000 -3.74820 0.00000
					CHANNELS 3 Zrotation Xrotation Yrotation
					JOINT RightToeBase
					{
						OFFSET 0.00000 0.06325 14.43120
						CHANNELS 3 Zrotation Xrotation Yrotation
						End site
						{
							OFFSET 0.00000 0.00000 0.00000
						}
					}
				}
			}
		}
	}
	JOINT LeftUpLeg
	{
		OFFSET 9.98441 0.00000 0.00000
		CHANNELS 3 Zrotation Xrotation Yrotation
		JOINT LeftLeg
		{
			OFFSET 0.00000 -42.11800 0.00000
			CHANNELS 3 Zrotation Xrotation Yrotation
			JOINT LeftFoot
			{
				OFFSET 0.00000 -45.00070 0.00000
				CHANNELS 3 Zrotation Xrotation Yrotation
				JOINT LeftForeFoot
				{
					OFFSET 0.00000 -3.74824 0.00000
					CHANNELS 3 Zrotation Xrotation Yrotation
					JOINT LeftToeBase
					{
						OFFSET 0.00000 0.06325 14.43110
						CHANNELS 3 Zrotation Xrotation Yrotation
						End site
						{
							OFFSET 0.00000 0.00000 0.00000
						}
					}
				}
			}
		}
	}
}
MOTION
Frames: 4
Frame Time: 0.050000
-0.04417648310364959 -0.012546051717183513 0.023285914038606956 0.04815474517164635 0.008817122109321214 0.03087221308532627 -3.1775460669562006 2.093962465606504 -0.6271543007462668 -1.0721118970659578 3.8062871677769246 0.36542374555850243 -0.9756999888823309 -1.765231729240308 -2.2261002306765834 -0.8470579209224166 0.5394502344277928 -0.996453417804591 -2.2848838308133077 13.588151383412457 5.427235859176134 -0.5262202984248132 -0.8495398634539545 11.52656825985248 -2.063453002902909 -16.665220327658933 1.0146385218918248 -3.866363504141996 1.5758094737335937 -13.266113856385092 73.05030858140948 20.256276938711085 10.28247351315766 11.637059379811696 5.6642067888948935 70.73978077705041 18.154237236018062 -0.34587363741705585 -3.7172508188546765 4.496089608448425 -0.09820731536751554 -1.5479964447541654 0.0061794366360115975 -0.037894863645204335 -56.21679761544767 -0.026476334426771986 0.03060542704683519 -56.19341900386513 -38.78947883342636 0.010639780256237647 -0.04818843468705628 -0.03612825512942033 -0.0015892904276333083 -0.019185277625379176 -0.047322470525088256 0.006086866720290419 -0.03256853181693177 -36.698757288216136 -0.0036632254847696654 -0.021150618010532724 -0.029926830388029933 0.030217726842250506 -0.027278244409489876 0.024752450045746853 -0.028069583608694056 0.027968361202459095 -19.783030253388826 -0.042569098133952044 0.04126449509871635 0.005017355648982011 -0.017181600980729534 0.0005797860038353298 0.0008809802368849414 -0.044619826266151276 0.030482359943612366 24.06472511248918 -0.0047777531109297 0.04699364589415568 28.84559266746361 0.008731322076373086 0.03570538749864229 28.88512220585454 0.013348448574537918 0.014376656957848111 10.293145414116244 2.1579378138654004 12.394409020777289 -70.61128374146112 8.47680525148573 -28.666444209005956 -65.40396591123485 9.699003591106736 -92.09728770070907 -7.425965788276354 2.3669880277005833 -2.0784318729918163 -0.42966438148332836 0.029338000789410477 -8.116079690173983 0.005523890790467111 -0.0151114482625986 44.5305426075411 -0.004212784917106743 0.04482465843580054 44.590249385216275 12.47767410801935 -0.024632830423610638 0.013605742272967633 -0.04874612335626043 -0.01295006352981763 -0.012143231804453298 -0.0422078532444818 0.003974135880910214 -0.029898539924531918 11.13640264915623 0.029942844386767836 0.03689053964680754 0.026047958132811407 -0.03636495205227705 0.01705166606965851 0.016367565456763607 0.004277477205651436 -0.04083859333708956 4.818847475006848 0.01899264348384886 -0.024909333424803025 -0.041246217506875175 0.029002996562772304 -0.04414471496823865 -0.033483211588363974 -0.04834682617366665 -0.009198707423418705 -5.637735113279614 0.025679372516467396 -0.037846261663087834 -6.720596786255699 -0.036841185507994555 0.018173070871433227 -6.733822264579309 -0.018885920187481985 0.006302310669566161 -0.005977812910551008 -0.004133052313273086 0.015643019609343545 8.01459991518493 3.5194900237999005 -19.24552234484345 0.010506423557255853 10.433048892956515 0.024738991266297403 -5.613985995134463 -15.688459459765825 3.221469132925783 -0.022541977816168693 -0.02979223815764865 -0.045089616724343855 0.04612871799553924 4.719503647152779 -0.013335222566892397 12.428946154039817 -8.272924514389302 6.88621972967053 -0.01491123963219717 46.337664786619676 0.0033775306860157808 -4.356834963534855 -14.797985633002762 -3.8122410231492863 0.0362227284267515 -0.008241938082706242 -0.036408719644786744 0.014330903572256143 -10.720940217343 0.03295831687071487 
0.018019711643343244 -0.030214576497065854 -0.03491954650847704 -0.045479415029604627 0.03147740220699438 0.01673366444963024 -3.084812067975321 2.1190956392746694 -0.6917210273854555 -1.0464453341839375 3.836624724158213 0.35777663210059424 -1.0015081511137092 -1.7346159014478306 -2.1175956416032724 -0.7876841795219285 0.48674600964611775 -0.9385730083045926 -2.1471694535376855 13.71524600905134 4.924979680353333 -0.5690813346491541 -0.7603690996462127 10.381783596330049 -1.9336030186210165 -16.552803187030175 0.975871778469405 -4.130120681827493 1.6126150093469875 -13.306440825439669 73.12333438408531 18.440812041253107 11.410700994375961 12.349500185228901 6.022902483723416 71.87443910914635 17.236361945844596 -0.3505615178661958 -3.452411140562857 4.540181970646121 -0.09452145021178723 -1.5780251519361796 0.040771420958980974 0.030503423868794406 -56.24531251518616 0.018600638371462502 -0.03385652930635552 -56.267344119287124 -38.77948728224712 0.044343837128890215 0.04628595219515904 0.04281835906343618 0.012409025034248245 -0.014976947837322457 0.00026863197117134096 -0.026613180073426508 0.004594663012784841 -36.72241069700822 0.004283461988703973 -0.04021352715190718 -0.028873582000290426 -0.04869729474477944 -0.023358585515608266 0.0017575079926953848 -0.020036486309951234 0.0169818631380161 -19.773850357099313 -0.03860216078698806 -0.0312618711684544 0.037081014362828665 -0.001991719554370734 -0.014389407714110897 -0.04429838136604341 0.02657571749550044 -0.04597723313455719 24.094576135893874 -0.032828166412813296 0.04973194522811828 28.864980655016723 -0.042394285522906104 0.008145374907926071 28.860252413652468 -1.0282215012009359e-05 0.014970112752510803 10.155128078921631 2.1448608076809816 12.420070738604412 -70.51098038649843 8.224378695283193 -28.36951675017744 -64.05148032741987 10.200326057847903 -92.23706121917814 -6.99217733783406 2.7046909893414535 -2.2928732952571167 -0.5028106015795671 0.06172555995046729 -8.098105880411545 0.018975486794290116 -0.030254289340713718 44.572711984114434 -0.015758089494169594 0.013165643650063806 44.53451563001824 12.481157846755554 -0.009529100822530558 0.02755935922126308 -0.012046743071164639 0.01823182608703067 -0.01546973502778718 0.008084697174263506 -0.03672309621105298 0.029675285300970713 11.105823133612395 0.025331395390227517 -0.006070930845825127 0.014536962069149806 -0.036983220645148314 0.02055673388017997 7.044877533435228e-05 0.03751475352715 0.02768280023838876 4.801534060177313 -0.04757593830288916 -0.0202219801570117 0.04664228347856778 -0.0029899329304579215 0.020000792837993536 -0.04258333199868933 0.006604235824360699 0.044455822941132775 -5.553174678108455 0.03153263149906252 -0.009991418620469364 -6.703658578077662 0.01895071055394292 0.03188720639411769 -6.756568386246966 -0.01475407051024326 -0.007401349973005587 -0.01503476440388648 -0.0007477928629426468 -0.02274474532504925 8.078089333029183 3.4740595455290992 -19.248866441030508 -0.018962250774378377 10.364111983070542 0.016260000352865445 -5.656172605862617 -15.646815409577567 3.143202462969938 0.012830725556335468 0.0003458238875282946 -0.042263101442630575 0.012730937904658828 4.706631302516136 -0.03611401187317539 12.48229117122163 -8.257749263913619 6.868583524954706 0.03966123365037216 46.39851908721782 0.02663686245425346 -4.347601098226387 -14.741485114506515 -3.81586657136299 0.035006975889078557 0.0205320270665566 -0.01008283390780522 -0.017919418979940222 -10.722835761261239 0.022260330101134356 
-0.039780896281589824 -0.0009678934996384165 0.0030897893824558117 0.02499480329016666 0.03449754134048013 -0.020708236094262512 -3.0994917275598706 2.1892789547417917 -0.689678961244579 -1.0580513680718007 3.8454357899251477 0.3978939236131545 -0.994632081899834 -1.778043293262437 -1.994389801032906 -0.7030061605289543 0.5660197266859645 -0.9339768352281631 -1.9937610219246995 13.756622554157016 4.478871393756155 -0.5487722483804445 -0.7389118846252498 9.216559194977748 -1.8133489965881775 -16.483473820562764 0.8044479182328883 -4.298479273836145 1.6642025378526217 -13.321559727637684 72.95879330068315 16.909588775669658 12.151313757565804 12.900827152427091 5.985958577281221 72.18376287252828 16.31041774891878 -0.32670973907731676 -3.061268109781158 4.533661720055008 -0.15717252220564673 -1.606075650211306 -0.01184495196407916 -0.016089440470553825 -56.22880713394444 0.006215308598058574 -0.013496964962013885 -56.24649085292746 -38.739215456974875 0.0037391554534480305 0.03182077825714126 -0.03311297029990472 -0.0338776261356848 0.04077417024692012 0.0019437481472959187 0.02939914526290981 -0.006768654217270508 -36.71930007487098 -0.027937580942518133 0.022406294695788063 0.00715446352179681 -0.027151133414211413 -0.018734108021149998 -0.007706198597765784 -0.001881514990292649 -0.03691647387919272 -19.807290041248248 0.009488401771452522 0.01112444263793678 -0.007252164710166992 -0.024050331662637984 0.01893574737567882 0.04170983416705762 -0.0072470355222572225 0.02811010552024264 24.088203297954916 -0.0007783336814664559 0.0011412775533120605 28.827880713327595 0.0033365659528950763 0.02287332980381596 28.861309900709916 0.0173072956233017 -0.028326454740661842 9.8883277990616 2.101143603283236 12.46663015110488 -70.11266496200952 8.789769914985538 -27.612042554096064 -60.82245268825077 10.51921845618271 -91.11207610879816 -6.650178503346728 3.016848966556585 -2.5854149699475717 -0.4856276447985663 0.030662514851029145 -8.143052146515625 -0.021905172508613933 0.03719836925231033 44.594452300778194 0.0025495527130829057 -0.04197521497961602 44.54421909593422 12.451460379396666 0.03289449456743538 -0.02120776464896035 0.019101270611350953 -0.031830415569063956 -0.008593806702286102 0.03447916056615872 0.008789029664995495 -0.02136141810868442 11.131132498893026 0.015499901553756813 0.025945777955155784 -0.013638743736385796 0.025276467953615912 0.0035868630891439657 0.03762569299261787 0.044057716186692956 0.03743288081907525 4.738744436539811 0.0018514681821252552 0.003835117626672736 0.02081668705875088 0.021983114796339125 -0.01572456096301049 -0.0006752089428312395 -0.030833544929160395 -0.03450395618160877 -5.6201472044536 -0.03233587609459849 -0.012474307654648723 -6.718210540801215 0.02493051086713533 -0.02924102234545024 -6.747109244589449 -0.0360376764137893 0.035230817023130946 0.04834916650016705 -0.0010119415297838894 -0.016143162331065497 8.008350797445468 3.533949572174634 -19.200084071737727 -0.003957706034293697 10.387706288642221 0.008469293775988734 -5.592570492305101 -15.702292603976314 3.173572490764094 -0.018261808342437336 0.028186610629940812 -0.008669405799119852 0.02719515359438244 4.681136626020313 -0.02105659144661943 12.489710222644336 -8.204480722306513 6.889672472684658 0.03437400001772078 46.36899134523638 -0.013427424298564292 -4.312066102347065 -14.750629218132762 -3.858058813563082 -0.04362741367623397 0.02222886039867124 0.040719105765549074 0.009823079394362168 -10.73837846740803 0.00043732596959231417 
-0.010624351452130826 0.002138640922404662 -0.02902620993791182 0.042810506118527825 -0.0014420177867095641 -0.021187731924828312 -3.0380741575899544 2.188709704954496 -0.6584287168520895 -1.0959404278168012 3.8630739770624 0.3288161631697462 -1.0706660487783886 -1.7414099311898386 -1.9242314504900113 -0.6457934502636051 0.5533922852309584 -0.9562484167361055 -1.8863297256578382 13.736167677306872 4.102902688317889 -0.5863539177420907 -0.737821995028155 8.239454060261162 -1.6912383461049338 -16.440227053085277 0.715003679928804 -4.519393763234865 1.7765543695401078 -13.3644587719811 72.94540735906867 16.45354305322595 12.113783612596126 12.070133956710503 5.8524948905023795 69.79632488636777 15.644281682749524 -0.3136222369931773 -2.6103451003529194 4.519190143328327 -0.17244730709548822 -1.5737336597091733 0.035156074225347646 0.03715069746700193 -56.253978157833366 0.045016421233977054 0.013371179091051228 -56.26768084640404 -38.72177507171775 0.034621324339606505 0.022720994041547322 -0.028020812321836383 0.010327631710689395 0.016866599742160083 -0.03157664513614108 -0.04134145447907295 0.012133930410596853 -36.66032384957343 0.007303992874814623 0.009652766552664014 0.0002841780488812109 -0.04562545938709449 0.03835860554320574 0.010415118458606229 0.010091975844090493 -0.031415376410449836 -19.710324620233724 0.0079772401557768 0.0406172227892217 0.021769151443957867 0.02702704902889861 -0.04258416425924438 -0.008095396282797903 0.009830699082734965 0.013454170787299555 24.072913443974954 -0.03680228711580557 0.02332189830425552 28.833330053290034 0.014582013779930451 0.008109398155957938 28.849835800866945 0.01018891136322472 -0.0018271322042854564 9.737245946567548 2.084706553032546 12.452072206741457 -69.90387041531129 9.759381558266654 -26.79096822839732 -56.60059516805855 11.025477137807371 -88.46105086688942 -6.2879023599806585 3.096344416253946 -2.530382354113396 -0.5082267104752729 0.07528722030048328 -8.132812770347908 -0.0091684060930248 0.010696329301607665 44.564221126173905 0.03659253394065977 -0.005677529053676702 44.55325931567154 12.49365001862132 -0.01930810262047432 0.022715183834935492 0.012629211110640364 0.04042001018829348 0.02585842833590406 0.021559157873195785 -0.0009832168382843487 0.016419672774236692 11.070474195917328 0.03306170767334501 0.01832278864040888 0.012464078357794709 -0.04235691503814977 0.033920662426572025 0.01655195866074867 0.03646571016320775 0.007483961393253966 4.773271116712819 0.029825066349189824 -0.022478173723987225 -0.04535057809719163 -0.042498854508808116 -0.02882310424454119 0.01873627439407109 0.005088022938173066 0.006706087144367029 -5.584995010809329 -0.03961285692354961 -0.014277919515118814 -6.6860087006531055 0.018898584289508597 -0.04642346714643459 -6.7524565766064235 -0.02746926554987434 -0.00756600861784648 0.029135606251975883 -0.008529919791100758 0.011142623616446672 8.092954014299922 3.4510297480156487 -19.223674225699273 0.03360090168093089 10.366782642859812 0.036271825268684 -5.586785032454633 -15.698750052885668 3.175252021288655 0.02581609154084721 -0.0218317804441262 0.0073868622523194285 -0.0239571161256882 4.709944978032621 -0.026903214863163306 12.422180067405673 -8.222912855774533 6.85254352573646 0.03987749678147551 46.381893505650616 0.011882429420009291 -4.294859437864748 -14.745637800901472 -3.8198220244169443 -0.012106848294949235 -0.03393574489441247 0.01282291637277809 0.026339501262616364 -10.72253261906712 0.012554752902525973 
